<mxfile host="app.diagrams.net" modified="2024-02-28T12:51:29.586Z" agent="Mozilla/5.0 (Windows NT 10.0; Win64; x64) AppleWebKit/537.36 (KHTML, like Gecko) Chrome/122.0.0.0 Safari/537.36" version="23.1.4" etag="BR-KHTTHB1pPYRfyYLGn" type="github">
  <diagram name="Page-1" id="cd2keJEHkzriasCPTpJ_">
    <mxGraphModel>
      <root>
        <mxCell id="0" />
        <mxCell id="1" parent="0" />
      </root>
    </mxGraphModel>
  </diagram>
</mxfile>
